<svg xmlns:xlink="http://www.w3.org/1999/xlink" xmlns="http://www.w3.org/2000/svg" viewBox="0 0 24 24" id="thumbs-down-outline-medium" aria-hidden="true" role="none" data-supported-dps="24x24" fill="#000000" fill-opacity="0.9" width="24"  height="24" >
  <path d="M21 13V3h-2.5l-.31-.16A8.08 8.08 0 0014.61 2H7.13A2.12 2.12 0 005 4.11v.15a2.12 2.12 0 00-2 2.12 2 2 0 00.28 1 2.14 2.14 0 00-1.28 2 2.12 2.12 0 00.91 1.74A2.15 2.15 0 002 12.88 2.12 2.12 0 004.12 15h4.77l-.43 1.29A9.19 9.19 0 008 19.14v1.11A2.75 2.75 0 0010.75 23a2.76 2.76 0 002.61-1.88l.49-1.47a7 7 0 011.69-2.74L19.46 13zm-2-2h-.37l-4.5 4.5A9 9 0 0012 19l-.49 1.47a.75.75 0 01-.71.51.77.77 0 01-.75-.75v-1.09a7 7 0 01.36-2.22L11.67 13h-7a.51.51 0 01-.51-.49.48.48 0 01.09-.29L5 11.13 4.27 10a1 1 0 01.16-1.2l.76-.74L5 7.05a1 1 0 01.62-1l.89-.37.25-.87a1 1 0 011-.72h6.89a6.14 6.14 0 012.69.63L18 5h1z" fill-opacity="0.9"></path>
</svg>